<?xml version="1.0" encoding="iso-8859-1"?>
<!-- Generator: Adobe Illustrator 18.0.0, SVG Export Plug-In . SVG Version: 6.00 Build 0)  -->
<!DOCTYPE svg PUBLIC "-//W3C//DTD SVG 1.1//EN" "http://www.w3.org/Graphics/SVG/1.1/DTD/svg11.dtd">
<svg version="1.1" id="Capa_1" xmlns="http://www.w3.org/2000/svg" xmlns:xlink="http://www.w3.org/1999/xlink" x="0px" y="0px"
	 viewBox="0 0 58.201 58.201" style="enable-background:new 0 0 58.201 58.201;" xml:space="preserve">
<g>
	<path d="M55.8,46.22c-0.549-0.108-1.069,0.241-1.18,0.781c-1.116,5.502-5.445,9.199-10.771,9.199c-5.028,0-9.446-3.3-10.948-8H37.6
		v-2h-8v8h2v-3.849c2.169,4.681,6.915,7.849,12.249,7.849c6.304,0,11.42-4.341,12.731-10.801C56.69,46.858,56.341,46.331,55.8,46.22
		z"/>
	<path d="M55.6,34.201v4.309c-2.25-4.454-6.704-7.309-11.751-7.309c-6.109,0-11.541,3.997-13.209,9.721
		c-0.154,0.53,0.15,1.085,0.681,1.239c0.531,0.152,1.086-0.151,1.239-0.681c1.398-4.797,6.146-8.279,11.289-8.279
		c4.565,0,8.562,2.766,10.33,7H49.6v2h8v-8H55.6z"/>
	<path d="M25.743,43.109c0.49-3.968,2.348-7.512,5.092-10.15c-0.854,0.049-1.729,0.086-2.628,0.111
		c-0.87,0.027-1.74,0.041-2.606,0.041c-0.869,0-1.742-0.014-2.614-0.042c-7.341-0.201-13.191-1.238-17.403-2.717
		C3.604,29.685,1.909,28.899,0.6,28v7.111v0.5v0.5V37.4c2.846,2.971,12.394,5.711,25,5.711
		C25.649,43.111,25.695,43.109,25.743,43.109z"/>
	<path d="M23.236,29.965c0.326,0.009,0.651,0.018,0.982,0.023C24.674,29.996,25.135,30,25.6,30s0.926-0.004,1.383-0.011
		c0.33-0.005,0.656-0.015,0.982-0.023c0.116-0.003,0.234-0.005,0.349-0.008c11.253-0.359,19.648-2.915,22.286-5.668V23v-0.5V22
		v-7.111C45.733,18.232,35.444,20,25.6,20s-20.133-1.768-25-5.111V22v0.5V23v1.289c2.638,2.754,11.033,5.31,22.286,5.668
		C23.002,29.96,23.12,29.962,23.236,29.965z"/>
	<path d="M50.6,11.306V9.5V9c0-0.168-0.056-0.319-0.135-0.458C49.343,4.241,40.715,0,25.6,0C10.523,0,1.904,4.22,0.747,8.51
		C0.662,8.657,0.6,8.818,0.6,9v0.5v1.806C3.437,14.267,12.917,17,25.6,17S47.764,14.267,50.6,11.306z"/>
	<path d="M25.651,46.2c-0.017,0-0.033,0-0.051,0c-12.346,0-20.866-2.29-25-5.201v8.201c0,0.162,0.043,0.315,0.117,0.451
		c1.181,4.895,11.747,8.549,24.883,8.549c2,0,3.93-0.094,5.787-0.255C28.084,55.035,25.925,50.872,25.651,46.2z"/>
</g>
<g>
</g>
<g>
</g>
<g>
</g>
<g>
</g>
<g>
</g>
<g>
</g>
<g>
</g>
<g>
</g>
<g>
</g>
<g>
</g>
<g>
</g>
<g>
</g>
<g>
</g>
<g>
</g>
<g>
</g>
</svg>
