<?xml version="1.0" encoding="iso-8859-1"?>
<!-- Generator: Adobe Illustrator 18.0.0, SVG Export Plug-In . SVG Version: 6.00 Build 0)  -->
<!DOCTYPE svg PUBLIC "-//W3C//DTD SVG 1.1//EN" "http://www.w3.org/Graphics/SVG/1.1/DTD/svg11.dtd">
<svg version="1.1" id="Capa_1" xmlns="http://www.w3.org/2000/svg" xmlns:xlink="http://www.w3.org/1999/xlink" x="0px" y="0px"
	 viewBox="0 0 58.201 58.201" style="enable-background:new 0 0 58.201 58.201;" xml:space="preserve">
<g>
	<path d="M55.839,47.844c-3.514-5.367-8.206-8.395-13.26-8.591c-0.267-0.032-0.538-0.052-0.813-0.052
		c-0.489,0-0.965,0.053-1.425,0.149c-4.597,0.592-8.832,3.552-12.068,8.494l-0.466,0.711l0.359,0.548
		c3.635,5.552,8.529,8.609,13.783,8.609c5.253,0,10.148-3.058,13.783-8.609l0.466-0.711L55.839,47.844z M46.676,46.11
		c0,2.707-2.202,4.909-4.909,4.909s-4.909-2.202-4.909-4.909c0-2.345,1.655-4.305,3.856-4.789c0.445-0.053,0.892-0.087,1.343-0.087
		c0.02,0,0.04,0.002,0.06,0.002C44.657,41.419,46.676,43.522,46.676,46.11z M41.949,55.712c-4.387,0-8.538-2.537-11.744-7.161
		c1.559-2.287,3.348-4.069,5.281-5.305c-0.4,0.874-0.629,1.842-0.629,2.864c0,3.81,3.1,6.909,6.909,6.909s6.909-3.1,6.909-6.909
		c0-1.216-0.318-2.358-0.872-3.352c2.204,1.207,4.242,3.107,5.996,5.638C50.579,53.119,46.385,55.712,41.949,55.712z"/>
	<path d="M28.119,43.096c3.899-4.449,8.743-6.862,13.938-6.862c2.98,0,5.843,0.802,8.48,2.318c0.596-0.376,1.092-0.762,1.466-1.152
		v-1.289v-0.5v-0.5V28c-1.318,0.905-3.028,1.697-5.025,2.367c-4.21,1.472-10.048,2.502-17.369,2.703
		c-0.87,0.027-1.74,0.041-2.606,0.041c-0.869,0-1.742-0.014-2.614-0.042c-7.341-0.201-13.191-1.238-17.403-2.717
		C5.007,29.685,3.311,28.899,2.003,28v7.111v0.5v0.5V37.4c2.846,2.971,12.394,5.711,25,5.711
		C27.38,43.111,27.746,43.101,28.119,43.096z"/>
	<path d="M24.638,29.965c0.326,0.009,0.651,0.018,0.982,0.023C26.076,29.996,26.537,30,27.003,30s0.926-0.004,1.383-0.011
		c0.33-0.005,0.656-0.015,0.982-0.023c0.116-0.003,0.234-0.005,0.349-0.008c11.253-0.359,19.648-2.915,22.286-5.668V23v-0.5V22
		v-7.111C47.135,18.232,36.847,20,27.003,20s-20.133-1.768-25-5.111V22v0.5V23v1.289c2.638,2.754,11.033,5.31,22.286,5.668
		C24.404,29.96,24.522,29.962,24.638,29.965z"/>
	<path d="M52.003,11.306V9.5V9c0-0.168-0.056-0.319-0.135-0.458C50.745,4.241,42.118,0,27.003,0C11.925,0,3.306,4.22,2.149,8.51
		C2.064,8.657,2.003,8.818,2.003,9v0.5v1.806C4.839,14.267,14.319,17,27.003,17S49.167,14.267,52.003,11.306z"/>
	<path d="M25.656,50.747l-1.436-2.192l1.543-2.354c0.003-0.004,0.006-0.009,0.009-0.013C14.096,46.039,5.997,43.813,2.003,41v8.201
		c0,0.162,0.043,0.315,0.117,0.451c1.181,4.895,11.747,8.549,24.883,8.549c1.979,0,3.889-0.092,5.728-0.25
		C30.086,56.268,27.686,53.847,25.656,50.747z"/>
</g>
<g>
</g>
<g>
</g>
<g>
</g>
<g>
</g>
<g>
</g>
<g>
</g>
<g>
</g>
<g>
</g>
<g>
</g>
<g>
</g>
<g>
</g>
<g>
</g>
<g>
</g>
<g>
</g>
<g>
</g>
</svg>
