<?xml version="1.0" encoding="UTF-8"?>
<svg enable-background="new 0 0 512 512" version="1.1" viewBox="0 0 512 512" xml:space="preserve" xmlns="http://www.w3.org/2000/svg">
			<path d="m234.67 341.33c8.286 0 16.967-0.185 25.853-0.514 3.953-0.146 7.43-2.569 9.147-6.133 22.406-46.509 70.016-78.686 125-78.686 20.563 0 40.563 4.552 59.417 13.531 3.313 1.552 7.167 1.333 10.271-0.615 3.104-1.958 4.979-5.365 4.979-9.021l1e-3 -57.177c0-8.346-8.952-13.277-16.122-9.007-66.251 39.452-199 40.954-218.55 40.954-19.544 0-152.29-1.503-218.54-40.954-7.171-4.27-16.123 0.661-16.123 9.008v63.948c0 54.781 140.33 74.666 234.67 74.666z"/>
			<path d="m234.67 213.33c94.333 0 234.67-19.885 234.67-74.667v-74.666c0-43.969-121.65-64-234.67-64s-234.67 20.031-234.67 64v74.667c0 54.781 140.33 74.666 234.67 74.666zm0-192c124.23 0 192 28.188 192 42.667s-67.771 42.667-192 42.667-192-28.188-192-42.667 67.771-42.667 192-42.667z"/>
			<path d="m256 394.67c0-6.751 0.538-13.37 1.517-19.848 0.992-6.563-4.148-12.427-10.783-12.29-5.521 0.115-9.658 0.138-12.068 0.138-19.568 0-152.62-1.505-218.79-41.103-7.016-4.198-15.874 0.978-15.874 9.155v63.948c0 49.021 118.06 74.667 234.67 74.667 8.583 0 17.021-0.167 25.354-0.438 3.604-0.104 6.896-2.021 8.771-5.083 1.875-3.073 2.083-6.875 0.542-10.125-8.855-18.761-13.334-38.615-13.334-59.021z"/>
			<path d="m394.67 277.33c-64.688 0-117.33 52.635-117.33 117.33s52.645 117.33 117.33 117.33 117.33-52.635 117.33-117.33-52.646-117.33-117.33-117.33zm0 192c-5.891 0-10.667-4.776-10.667-10.667 0-5.892 4.776-10.667 10.667-10.667s10.667 4.775 10.667 10.667c-1e-3 5.891-4.777 10.667-10.667 10.667zm10.666-53.333c0 5.896-4.771 10.667-10.667 10.667s-10.666-4.771-10.666-10.667v-85.333c0-5.896 4.771-10.667 10.667-10.667s10.667 4.771 10.667 10.667v85.333z"/>
</svg>
