<svg height="448pt" viewBox="0 -24 448.19694 448" width="448pt" xmlns="http://www.w3.org/2000/svg"><path d="m405.808594 113.742188c-3.28125-.832032-5.683594-3.644532-6-7.015626-1.816406-19.464843-13.679688-36.5625-31.277344-45.082031-17.59375-8.519531-38.363281-7.21875-54.761719 3.425781-2.164062 1.421876-4.882812 1.707032-7.296875.765626-2.414062-.9375-4.222656-2.988282-4.855468-5.503907-9.035157-35.433593-40.949219-60.2343748-77.519532-60.2343748-36.570312 0-68.484375 24.8007818-77.519531 60.2343748-.632813 2.515625-2.441406 4.566407-4.851563 5.503907-2.414062.941406-5.136718.65625-7.300781-.765626-16.398437-10.644531-37.164062-11.945312-54.761719-3.425781-17.59375 8.519531-29.457031 25.617188-31.277343 45.082031-.3125 3.371094-2.714844 6.183594-6 7.015626-27.445313 6.878906-45.449219 33.148437-41.960938 61.226562 3.492188 28.078125 27.378907 49.144531 55.671875 49.09375h48v-56c0-4.417969 3.582032-8 8-8h184c1.800782 0 3.546875.605469 4.960938 1.71875l40 31.609375c1.917968 1.515625 3.039062 3.824219 3.039062 6.269531v24.402344h48c28.296875.050781 52.183594-21.015625 55.671875-49.09375s-14.511719-54.347656-41.960937-61.226562zm0 0"/><path d="m328.097656 400.0625v-196.519531l-32-25.289063v61.808594c0 4.417969-3.582031 8-8 8h-112c-4.417968 0-8-3.582031-8-8v-64h-48v224h16v-88c0-4.417969 3.582032-8 8-8h160c4.417969 0 8 3.582031 8 8v88zm0 0"/><path d="m152.097656 400.0625h144v-80h-144zm32-64h80c4.417969 0 8 3.582031 8 8s-3.582031 8-8 8h-80c-4.417968 0-8-3.582031-8-8s3.582032-8 8-8zm0 32h80c4.417969 0 8 3.582031 8 8s-3.582031 8-8 8h-80c-4.417968 0-8-3.582031-8-8s3.582032-8 8-8zm0 0"/><path d="m184.097656 176.0625v56h96v-56zm80 32c0 4.417969-3.582031 8-8 8-4.417968 0-8-3.582031-8-8v-16c0-4.417969 3.582032-8 8-8 4.417969 0 8 3.582031 8 8zm0 0"/></svg>