<?xml version="1.0" encoding="iso-8859-1"?>
<!-- Generator: Adobe Illustrator 19.1.0, SVG Export Plug-In . SVG Version: 6.00 Build 0)  -->
<svg version="1.1" id="Capa_1" xmlns="http://www.w3.org/2000/svg" xmlns:xlink="http://www.w3.org/1999/xlink" x="0px" y="0px"
	 viewBox="0 0 486.9 486.9" style="enable-background:new 0 0 486.9 486.9;" xml:space="preserve">
<g>
	<g>
		<g>
			<path d="M276.8,364.45c0-19.8,4.9-38.9,14.2-55.9c-13.2-7.4-22.9-12.3-26.9-14.2c-1.2-0.6-2-1.9-2-3.2v-78
				c9.8-6.5,16.3-17.7,16.3-30.4v-80.9c0-40.3-32.6-72.9-72.9-72.9h-8.7h-8.7c-40.3,0-72.9,32.6-72.9,72.9v80.9
				c0,12.7,6.5,23.8,16.3,30.4v78c0,1.4-0.8,2.6-2,3.2c-11,5.4-65,32.7-115.2,73.9c-9.1,7.4-14.3,18.6-14.3,30.3v55.4h196.7h121.8
				c-2.6-2.2-5.2-4.5-7.6-7C288.9,424.95,276.8,395.55,276.8,364.45z"/>
		</g>
		<g>
			<path d="M486.9,358.25c0-4.4-3.5-7.9-7.9-7.9h-12c-1.9-9.9-5.8-19.4-11.7-28l8.5-8.5c3.1-3.1,3.1-8.1,0-11.2l-8.6-8.6
				c-3.1-3.1-8.1-3.1-11.2,0l-8.5,8.5c-8.6-5.9-18.2-9.7-28.1-11.6v-12c0-4.4-3.5-7.9-7.9-7.9h-12.2c-4.4,0-7.9,3.5-7.9,7.9v12
				c-9.9,1.9-19.5,5.7-28.2,11.6l-8.4-8.4c-3.1-3.1-8.1-3.1-11.2,0l-8.6,8.6c-3.1,3.1-3.1,8.1,0,11.2l8.3,8.3
				c-6,8.7-9.9,18.3-11.8,28.3h-11.7c-4.4,0-7.9,3.5-7.9,7.9v12.2c0,4.4,3.5,7.9,7.9,7.9h11.6c1.9,10,5.8,19.7,11.8,28.4l-8.2,8.2
				c-3.1,3.1-3.1,8.1,0,11.2l8.6,8.6c3.1,3.1,8.1,3.1,11.2,0l8.2-8.2c8.7,5.9,18.4,9.8,28.4,11.7v11.6c0,4.4,3.5,7.9,7.9,7.9h12.2
				c4.4,0,7.9-3.5,7.9-7.9v-11.7c10-1.9,19.6-5.9,28.3-11.8l8.3,8.3c3.1,3.1,8.1,3.1,11.2,0l8.6-8.6c3.1-3.1,3.1-8.1,0-11.2
				l-8.4-8.4c5.9-8.7,9.7-18.3,11.6-28.2h12c4.4,0,7.9-3.5,7.9-7.9L486.9,358.25z M422.3,393.15c-15.9,15.9-41.6,15.9-57.5,0.1
				c-15.9-15.9-15.9-41.6-0.1-57.5c15.9-15.9,41.6-15.9,57.5-0.1C438.2,351.45,438.2,377.25,422.3,393.15z"/>
		</g>
	</g>
</g>
<g>
</g>
<g>
</g>
<g>
</g>
<g>
</g>
<g>
</g>
<g>
</g>
<g>
</g>
<g>
</g>
<g>
</g>
<g>
</g>
<g>
</g>
<g>
</g>
<g>
</g>
<g>
</g>
<g>
</g>
</svg>
