<?xml version="1.0" encoding="iso-8859-1"?>
<!-- Generator: Adobe Illustrator 18.0.0, SVG Export Plug-In . SVG Version: 6.00 Build 0)  -->
<!DOCTYPE svg PUBLIC "-//W3C//DTD SVG 1.1//EN" "http://www.w3.org/Graphics/SVG/1.1/DTD/svg11.dtd">
<svg version="1.1" id="Capa_1" xmlns="http://www.w3.org/2000/svg" xmlns:xlink="http://www.w3.org/1999/xlink" x="0px" y="0px"
	 viewBox="0 0 58.201 58.201" style="enable-background:new 0 0 58.201 58.201;" xml:space="preserve">
<g>
	<path d="M55.789,43.064l-1.444-0.277c-0.677-0.13-1.21-0.573-1.462-1.216c-0.253-0.642-0.163-1.329,0.245-1.885l0.907-1.236
		c0.292-0.398,0.25-0.95-0.1-1.299l-1.959-1.958c-0.339-0.338-0.872-0.389-1.268-0.121l-1.217,0.824
		c-0.331,0.224-0.71,0.343-1.099,0.343c-0.844,0-1.787-0.576-1.956-1.676l-0.233-1.515c-0.075-0.487-0.495-0.848-0.988-0.848h-2.77
		c-0.479,0-0.892,0.341-0.982,0.812l-0.358,1.865c-0.201,1.051-1.13,1.601-1.942,1.601c-0.389,0-0.769-0.118-1.099-0.342
		l-1.572-1.064c-0.397-0.268-0.929-0.217-1.268,0.121l-1.959,1.958c-0.35,0.349-0.392,0.9-0.1,1.299l0.907,1.236
		c0.408,0.556,0.498,1.243,0.245,1.885c-0.252,0.643-0.785,1.086-1.462,1.216l-1.444,0.277c-0.471,0.091-0.812,0.503-0.812,0.982
		v2.77c0,0.493,0.36,0.913,0.848,0.988l1.515,0.233c0.683,0.105,1.232,0.528,1.508,1.16c0.276,0.633,0.212,1.323-0.175,1.895
		l-0.824,1.217c-0.269,0.396-0.218,0.929,0.121,1.268l1.958,1.959c0.348,0.349,0.899,0.39,1.299,0.1l1.236-0.907
		c0.342-0.252,0.742-0.385,1.156-0.385c0.813,0,1.742,0.551,1.944,1.602l0.277,1.444c0.091,0.471,0.503,0.812,0.982,0.812h2.77
		c0.493,0,0.913-0.36,0.988-0.848l0.164-1.065c0.169-1.1,1.113-1.676,1.958-1.676c0.413,0,0.813,0.134,1.156,0.386l0.869,0.638
		c0.4,0.293,0.951,0.25,1.299-0.1l1.958-1.959c0.339-0.339,0.39-0.871,0.121-1.268l-0.824-1.217
		c-0.387-0.571-0.451-1.262-0.175-1.895c0.275-0.632,0.825-1.055,1.508-1.16l1.515-0.233c0.487-0.075,0.848-0.495,0.848-0.988v-2.77
		C56.6,43.567,56.26,43.155,55.789,43.064z M54.6,45.958l-0.667,0.103c-1.354,0.208-2.489,1.082-3.036,2.337
		c-0.548,1.256-0.416,2.682,0.352,3.815l0.361,0.533l-0.768,0.768l-0.177-0.13c-0.689-0.505-1.498-0.772-2.34-0.772
		c-1.979,0-3.635,1.418-3.935,3.371l-0.033,0.218h-1.086l-0.121-0.633c-0.359-1.868-2.004-3.225-3.909-3.225
		c-0.843,0-1.651,0.268-2.34,0.771l-0.544,0.399l-0.768-0.768l0.361-0.533c0.768-1.134,0.899-2.56,0.352-3.815
		c-0.547-1.255-1.683-2.129-3.036-2.337L32.6,45.958v-1.086l0.633-0.121c1.346-0.259,2.447-1.175,2.947-2.449
		c0.5-1.275,0.315-2.695-0.494-3.8l-0.399-0.544l0.768-0.768l0.889,0.602c0.662,0.448,1.43,0.686,2.22,0.686
		c1.905,0,3.548-1.355,3.907-3.224l0.202-1.054h1.086l0.103,0.667c0.301,1.953,1.955,3.371,3.934,3.371
		c0.789,0,1.556-0.237,2.219-0.687l0.533-0.361l0.768,0.768l-0.399,0.544c-0.81,1.104-0.994,2.524-0.494,3.8
		c0.5,1.274,1.602,2.19,2.947,2.449l0.633,0.121V45.958z"/>
	<path d="M43.6,40.201c-2.757,0-5,2.243-5,5s2.243,5,5,5s5-2.243,5-5S46.357,40.201,43.6,40.201z M43.6,48.201c-1.654,0-3-1.346-3-3
		s1.346-3,3-3s3,1.346,3,3S45.255,48.201,43.6,48.201z"/>
	<path d="M27.6,43.098v-1.53c0-0.479,0.341-0.892,0.812-0.982l2.28-0.438l-1.469-2c-0.292-0.398-0.25-0.95,0.1-1.299l4.001-3.999
		c-1.32,0.1-2.681,0.18-4.117,0.219c-0.87,0.027-1.74,0.041-2.606,0.041c-0.869,0-1.742-0.014-2.614-0.042
		c-7.341-0.201-13.191-1.238-17.403-2.717C4.604,29.685,2.909,28.899,1.6,28v7.111v0.5v0.5V37.4c2.846,2.971,12.394,5.711,25,5.711
		C26.939,43.111,27.266,43.102,27.6,43.098z"/>
	<path d="M24.236,29.965c0.326,0.009,0.651,0.018,0.982,0.023C25.674,29.996,26.135,30,26.6,30s0.926-0.004,1.383-0.011
		c0.33-0.005,0.656-0.015,0.982-0.023c0.116-0.003,0.234-0.005,0.349-0.008c11.253-0.359,19.648-2.915,22.286-5.668V23v-0.5V22
		v-7.111C46.733,18.232,36.444,20,26.6,20s-20.133-1.768-25-5.111V22v0.5V23v1.289c2.638,2.754,11.033,5.31,22.286,5.668
		C24.002,29.96,24.12,29.962,24.236,29.965z"/>
	<path d="M51.6,11.306V9.5V9c0-0.168-0.056-0.319-0.135-0.458C50.343,4.241,41.715,0,26.6,0C11.523,0,2.904,4.22,1.747,8.51
		C1.662,8.657,1.6,8.818,1.6,9v0.5v1.806C4.437,14.267,13.917,17,26.6,17S48.764,14.267,51.6,11.306z"/>
	<path d="M29.598,52.677l1.303-1.923l-2.453-0.377c-0.487-0.075-0.848-0.495-0.848-0.988v-3.2c-0.334,0.003-0.66,0.012-1,0.012
		c-12.346,0-20.866-2.29-25-5.201v8.201c0,0.162,0.043,0.315,0.117,0.451c1.181,4.895,11.747,8.549,24.883,8.549
		c2.44,0,4.79-0.127,7.009-0.363l-3.89-3.893C29.381,53.606,29.33,53.074,29.598,52.677z"/>
</g>
<g>
</g>
<g>
</g>
<g>
</g>
<g>
</g>
<g>
</g>
<g>
</g>
<g>
</g>
<g>
</g>
<g>
</g>
<g>
</g>
<g>
</g>
<g>
</g>
<g>
</g>
<g>
</g>
<g>
</g>
</svg>
