<?xml version="1.0" encoding="iso-8859-1"?>
<!-- Generator: Adobe Illustrator 18.0.0, SVG Export Plug-In . SVG Version: 6.00 Build 0)  -->
<!DOCTYPE svg PUBLIC "-//W3C//DTD SVG 1.1//EN" "http://www.w3.org/Graphics/SVG/1.1/DTD/svg11.dtd">
<svg version="1.1" id="Capa_1" xmlns="http://www.w3.org/2000/svg" xmlns:xlink="http://www.w3.org/1999/xlink" x="0px" y="0px"
	 viewBox="0 0 58.205 58.205" style="enable-background:new 0 0 58.205 58.205;" xml:space="preserve">
<g>
	<path d="M56.305,54.839L44.458,34.533c-0.405-0.695-1.127-1.109-1.932-1.109s-1.527,0.414-1.933,1.109L28.748,54.839
		c-0.409,0.7-0.412,1.539-0.008,2.242c0.404,0.703,1.129,1.123,1.94,1.123h23.69c0.812,0,1.537-0.42,1.94-1.123
		C56.716,56.377,56.713,55.54,56.305,54.839z M54.577,56.085c-0.031,0.054-0.092,0.119-0.206,0.119h-23.69
		c-0.114,0-0.175-0.064-0.206-0.119s-0.056-0.14,0.001-0.238l11.845-20.307c0.057-0.098,0.143-0.117,0.205-0.117
		s0.148,0.02,0.205,0.117l11.846,20.307C54.634,55.945,54.608,56.031,54.577,56.085z"/>
	<path d="M42.611,40.205c-0.552,0-1,0.447-1,1v8c0,0.553,0.448,1,1,1s1-0.447,1-1v-8C43.611,40.652,43.163,40.205,42.611,40.205z"/>
	<path d="M41.902,52.5c-0.19,0.18-0.29,0.439-0.29,0.71c0,0.26,0.1,0.51,0.29,0.7c0.19,0.189,0.45,0.3,0.71,0.3
		c0.26,0,0.52-0.11,0.71-0.3c0.18-0.19,0.29-0.44,0.29-0.7c0-0.271-0.11-0.53-0.29-0.71C42.941,52.121,42.271,52.121,41.902,52.5z"
		/>
	<path d="M24.227,29.965c0.326,0.009,0.651,0.018,0.982,0.023C25.666,29.996,26.126,30,26.592,30s0.926-0.004,1.383-0.011
		c0.33-0.005,0.656-0.015,0.982-0.023c0.116-0.003,0.234-0.005,0.349-0.008c11.253-0.359,19.648-2.915,22.286-5.668V23v-0.5V22
		v-7.111C46.724,18.232,36.436,20,26.592,20s-20.133-1.768-25-5.111V22v0.5V23v1.289c2.638,2.754,11.033,5.31,22.286,5.668
		C23.994,29.96,24.111,29.962,24.227,29.965z"/>
	<path d="M51.592,11.306V9.5V9c0-0.168-0.056-0.319-0.135-0.458C50.334,4.241,41.707,0,26.592,0C11.514,0,2.895,4.22,1.738,8.51
		C1.653,8.657,1.592,8.818,1.592,9v0.5v1.806C4.428,14.267,13.908,17,26.592,17S48.756,14.267,51.592,11.306z"/>
	<path d="M30.361,46.121c-1.216,0.049-2.466,0.08-3.769,0.08c-12.346,0-20.866-2.29-25-5.201v8.201c0,0.162,0.043,0.315,0.117,0.451
		c1.161,4.814,11.407,8.42,24.241,8.538c-0.726-1.548-0.663-3.372,0.207-4.862L30.361,46.121z"/>
	<path d="M32.231,42.915l5.771-9.894c0.159-0.272,0.348-0.52,0.55-0.755c-2.781,0.424-5.896,0.709-9.353,0.804
		c-0.87,0.027-1.74,0.041-2.606,0.041c-0.869,0-1.742-0.014-2.614-0.042c-7.341-0.201-13.191-1.238-17.403-2.717
		C4.596,29.685,2.9,28.899,1.592,28v7.111v0.5v0.5V37.4c2.846,2.971,12.394,5.711,25,5.711
		C28.554,43.111,30.431,43.038,32.231,42.915z"/>
</g>
<g>
</g>
<g>
</g>
<g>
</g>
<g>
</g>
<g>
</g>
<g>
</g>
<g>
</g>
<g>
</g>
<g>
</g>
<g>
</g>
<g>
</g>
<g>
</g>
<g>
</g>
<g>
</g>
<g>
</g>
</svg>
